<?xml version="1.0" encoding="utf-8"?>
<svg width="800px" height="800px" viewBox="0 0 20 20" fill="none" xmlns="http://www.w3.org/2000/svg">
  <path fill="#000000" fill-rule="evenodd" d="M 8.869 17.913 C 8.869 18.783 9.811 19.327 10.564 18.891 C 10.915 18.689 11.129 18.317 11.129 17.913 L 11.129 11.131 L 17.912 11.131 C 18.782 11.131 19.325 10.189 18.891 9.436 C 18.689 9.085 18.316 8.871 17.912 8.871 L 11.129 8.871 L 11.129 2.088 C 11.129 1.218 10.188 0.675 9.434 1.109 C 9.085 1.311 8.869 1.684 8.869 2.088 L 8.869 8.871 L 2.087 8.871 C 1.217 8.871 0.673 9.812 1.109 10.566 C 1.311 10.915 1.683 11.131 2.087 11.131 L 8.869 11.131 L 8.869 17.913 Z" style=""/>
</svg>